<svg xmlns="http://www.w3.org/2000/svg" width="1200" height="675" viewBox="0 0 1200 675" role="img" aria-labelledby="title desc">
  <title id="title">The Human Authorship Transformation Flywheel</title>
  <desc id="desc">A fake consulting infographic showing the write-code-by-hand transformation loop.</desc>
  <defs>
    <linearGradient id="page" x1="0" y1="0" x2="1" y2="1">
      <stop offset="0" stop-color="#ffffff"/>
      <stop offset="1" stop-color="#eef6ff"/>
    </linearGradient>
    <filter id="shadow" x="-20%" y="-20%" width="140%" height="140%">
      <feDropShadow dx="0" dy="10" stdDeviation="12" flood-color="#14315d" flood-opacity="0.14"/>
    </filter>
    <marker id="arrow" markerWidth="12" markerHeight="12" refX="10" refY="6" orient="auto">
      <path d="M2 2 L10 6 L2 10 Z" fill="#0a66c2"/>
    </marker>
  </defs>

  <rect width="1200" height="675" fill="url(#page)"/>
  <text x="80" y="84" font-family="Inter, Arial, sans-serif" font-size="22" font-weight="800" fill="#0a66c2">ENTERPRISE OPERATING MODEL</text>
  <text x="80" y="138" font-family="Inter, Arial, sans-serif" font-size="48" font-weight="850" fill="#0b1f3a">The Human Authorship</text>
  <text x="80" y="194" font-family="Inter, Arial, sans-serif" font-size="48" font-weight="850" fill="#0b1f3a">Transformation Flywheel</text>

  <g transform="translate(120 275)" filter="url(#shadow)">
    <rect x="0" y="0" width="210" height="112" rx="18" fill="#ffffff" stroke="#d6e4f5"/>
    <text x="105" y="42" text-anchor="middle" font-family="Inter, Arial, sans-serif" font-size="26" font-weight="800" fill="#0a66c2">1. Prompt</text>
    <text x="105" y="74" text-anchor="middle" font-family="Inter, Arial, sans-serif" font-size="16" fill="#40546f">Natural language</text>
    <text x="105" y="96" text-anchor="middle" font-family="Inter, Arial, sans-serif" font-size="16" fill="#40546f">editor intent</text>
  </g>

  <g transform="translate(386 220)" filter="url(#shadow)">
    <rect x="0" y="0" width="210" height="112" rx="18" fill="#ffffff" stroke="#d6e4f5"/>
    <text x="105" y="42" text-anchor="middle" font-family="Inter, Arial, sans-serif" font-size="26" font-weight="800" fill="#0a66c2">2. Cursor</text>
    <text x="105" y="74" text-anchor="middle" font-family="Inter, Arial, sans-serif" font-size="16" fill="#40546f">Agent locates</text>
    <text x="105" y="96" text-anchor="middle" font-family="Inter, Arial, sans-serif" font-size="16" fill="#40546f">line 42</text>
  </g>

  <g transform="translate(652 275)" filter="url(#shadow)">
    <rect x="0" y="0" width="210" height="112" rx="18" fill="#ffffff" stroke="#d6e4f5"/>
    <text x="105" y="42" text-anchor="middle" font-family="Inter, Arial, sans-serif" font-size="26" font-weight="800" fill="#0a66c2">3. Type</text>
    <text x="105" y="74" text-anchor="middle" font-family="Inter, Arial, sans-serif" font-size="16" fill="#40546f">Human supplies</text>
    <text x="105" y="96" text-anchor="middle" font-family="Inter, Arial, sans-serif" font-size="16" fill="#40546f">actual code</text>
  </g>

  <g transform="translate(502 450)" filter="url(#shadow)">
    <rect x="0" y="0" width="210" height="112" rx="18" fill="#ffffff" stroke="#d6e4f5"/>
    <text x="105" y="42" text-anchor="middle" font-family="Inter, Arial, sans-serif" font-size="26" font-weight="800" fill="#0a66c2">4. Save</text>
    <text x="105" y="74" text-anchor="middle" font-family="Inter, Arial, sans-serif" font-size="16" fill="#40546f">Agent writes</text>
    <text x="105" y="96" text-anchor="middle" font-family="Inter, Arial, sans-serif" font-size="16" fill="#40546f">exact bytes</text>
  </g>

  <g fill="none" stroke="#0a66c2" stroke-width="5" stroke-linecap="round" marker-end="url(#arrow)">
    <path d="M330 324 C350 276 360 262 386 260"/>
    <path d="M596 276 C620 280 634 290 652 314"/>
    <path d="M748 387 C748 436 724 464 712 486"/>
    <path d="M502 506 C380 506 238 454 212 388"/>
  </g>

  <g transform="translate(918 198)">
    <rect x="0" y="0" width="216" height="316" rx="22" fill="#0b1f3a"/>
    <text x="28" y="52" font-family="Inter, Arial, sans-serif" font-size="18" font-weight="800" fill="#9ee7ff">SUCCESS METRICS</text>
    <text x="28" y="112" font-family="Inter, Arial, sans-serif" font-size="40" font-weight="850" fill="#ffffff">+312%</text>
    <text x="28" y="140" font-family="Inter, Arial, sans-serif" font-size="16" fill="#c8d7ea">AI touchpoints</text>
    <text x="28" y="202" font-family="Inter, Arial, sans-serif" font-size="40" font-weight="850" fill="#ffffff">0%</text>
    <text x="28" y="230" font-family="Inter, Arial, sans-serif" font-size="16" fill="#c8d7ea">loss of habits</text>
    <text x="28" y="286" font-family="Inter, Arial, sans-serif" font-size="19" font-weight="800" fill="#ffffff">Keyboard-first</text>
    <text x="28" y="310" font-family="Inter, Arial, sans-serif" font-size="16" fill="#c8d7ea">transformation</text>
  </g>

  <text x="80" y="620" font-family="Inter, Arial, sans-serif" font-size="18" fill="#5d7088">The model does not write code. It delivers strategic cursor displacement.</text>
</svg>
